<mxfile host="www.draw.io" modified="2020-02-16T05:22:52.880Z" agent="Mozilla/5.0 (Macintosh; Intel Mac OS X 10.15; rv:68.0) Gecko/20100101 Firefox/68.0" etag="wV2HnSh5P5RL0m-dzpco" version="12.7.0" type="github">
  <diagram id="xupO3icmrTxjliYeusn_" name="Page-1">
    <mxGraphModel dx="786" dy="528" grid="1" gridSize="10" guides="1" tooltips="1" connect="1" arrows="1" fold="1" page="1" pageScale="1" pageWidth="827" pageHeight="1169" math="0" shadow="0">
      <root>
        <mxCell id="0"/>
        <mxCell id="1" parent="0"/>
        <mxCell id="58-gwT4smtZHYKt8Fmy1-1" value="Text" style="text;html=1;strokeColor=none;fillColor=none;align=center;verticalAlign=middle;whiteSpace=wrap;rounded=0;" vertex="1" parent="1">
          <mxGeometry x="20" y="20" width="40" height="20" as="geometry"/>
        </mxCell>
        <mxCell id="58-gwT4smtZHYKt8Fmy1-2" value="&lt;h1&gt;Heading&lt;/h1&gt;&lt;p&gt;Lorem ipsum dolor sit amet, consectetur adipisicing elit, sed do eiusmod tempor incididunt ut labore et dolore magna aliqua.&lt;/p&gt;" style="text;html=1;strokeColor=none;fillColor=none;spacing=5;spacingTop=-20;whiteSpace=wrap;overflow=hidden;rounded=0;" vertex="1" parent="1">
          <mxGeometry x="20" y="60" width="190" height="120" as="geometry"/>
        </mxCell>
      </root>
    </mxGraphModel>
  </diagram>
</mxfile>
